<?xml version="1.0" encoding="UTF-8" standalone="no"?>
<!-- Created with Inkscape (http://www.inkscape.org/) -->

<svg
   width="297mm"
   height="210mm"
   viewBox="0 0 297 210"
   version="1.1"
   id="svg5"
   inkscape:version="1.2.1 (9c6d41e410, 2022-07-14)"
   sodipodi:docname="rot_estimation.svg"
   xmlns:inkscape="http://www.inkscape.org/namespaces/inkscape"
   xmlns:sodipodi="http://sodipodi.sourceforge.net/DTD/sodipodi-0.dtd"
   xmlns="http://www.w3.org/2000/svg"
   xmlns:svg="http://www.w3.org/2000/svg"
   xmlns:ns3="http://www.iki.fi/pav/software/textext/">
  <sodipodi:namedview
     id="namedview7"
     pagecolor="#ffffff"
     bordercolor="#666666"
     borderopacity="1.0"
     inkscape:showpageshadow="2"
     inkscape:pageopacity="0.0"
     inkscape:pagecheckerboard="0"
     inkscape:deskcolor="#d1d1d1"
     inkscape:document-units="mm"
     showgrid="false"
     inkscape:zoom="0.84096521"
     inkscape:cx="497.64247"
     inkscape:cy="635.57921"
     inkscape:window-width="1920"
     inkscape:window-height="1030"
     inkscape:window-x="1920"
     inkscape:window-y="24"
     inkscape:window-maximized="1"
     inkscape:current-layer="layer1" />
  <defs
     id="defs2">
    <marker
       style="overflow:visible"
       id="marker33368"
       refX="0"
       refY="0"
       orient="auto-start-reverse"
       inkscape:stockid="TriangleStart"
       markerWidth="5.3244081"
       markerHeight="6.155385"
       viewBox="0 0 5.3244081 6.1553851"
       inkscape:isstock="true"
       inkscape:collect="always"
       preserveAspectRatio="xMidYMid">
      <path
         transform="scale(0.5)"
         style="fill:context-stroke;fill-rule:evenodd;stroke:context-stroke;stroke-width:1pt"
         d="M 5.77,0 -2.88,5 V -5 Z"
         id="path33366" />
    </marker>
    <marker
       style="overflow:visible"
       id="marker33368_Fnone_S-b58900"
       refX="0"
       refY="0"
       orient="auto-start-reverse"
       inkscape:stockid="TriangleStart"
       markerWidth="5.3244081"
       markerHeight="6.155385"
       viewBox="0 0 5.3244081 6.1553851"
       inkscape:isstock="true"
       inkscape:collect="always"
       preserveAspectRatio="xMidYMid">
      <path
         transform="scale(0.5)"
         style="fill:#b58900;fill-rule:evenodd;stroke:#b58900;stroke-width:1pt"
         d="M 5.77,0 -2.88,5 V -5 Z"
         id="path46274" />
    </marker>
    <inkscape:path-effect
       effect="spiro"
       id="path-effect19381"
       is_visible="true"
       lpeversion="1" />
    <inkscape:path-effect
       effect="spiro"
       id="path-effect3474"
       is_visible="true"
       lpeversion="1" />
    <marker
       style="overflow:visible"
       id="marker2818"
       refX="0"
       refY="0"
       orient="auto-start-reverse"
       inkscape:stockid="TriangleStart"
       markerWidth="5.3244081"
       markerHeight="6.155385"
       viewBox="0 0 5.3244081 6.1553851"
       inkscape:isstock="true"
       inkscape:collect="always"
       preserveAspectRatio="xMidYMid">
      <path
         transform="scale(0.5)"
         style="fill:context-stroke;fill-rule:evenodd;stroke:context-stroke;stroke-width:1pt"
         d="M 5.77,0 -2.88,5 V -5 Z"
         id="path2816" />
    </marker>
    <marker
       style="overflow:visible"
       id="marker2818_Fnone_S-93a1a1"
       refX="0"
       refY="0"
       orient="auto-start-reverse"
       inkscape:stockid="TriangleStart"
       markerWidth="5.3244081"
       markerHeight="6.155385"
       viewBox="0 0 5.3244081 6.1553851"
       inkscape:isstock="true"
       inkscape:collect="always"
       preserveAspectRatio="xMidYMid">
      <path
         transform="scale(0.5)"
         style="fill:#93a1a1;fill-rule:evenodd;stroke:#93a1a1;stroke-width:1pt"
         d="M 5.77,0 -2.88,5 V -5 Z"
         id="path46277" />
    </marker>
    <inkscape:path-effect
       effect="spiro"
       id="path-effect2802"
       is_visible="true"
       lpeversion="1" />
    <inkscape:path-effect
       effect="spiro"
       id="path-effect2299"
       is_visible="true"
       lpeversion="1" />
    <inkscape:path-effect
       effect="spiro"
       id="path-effect1930"
       is_visible="true"
       lpeversion="1" />
    <marker
       style="overflow:visible"
       id="marker1170"
       refX="0"
       refY="0"
       orient="auto-start-reverse"
       inkscape:stockid="TriangleStart"
       markerWidth="5.3244081"
       markerHeight="6.155385"
       viewBox="0 0 5.3244081 6.1553851"
       inkscape:isstock="true"
       inkscape:collect="always"
       preserveAspectRatio="xMidYMid">
      <path
         transform="scale(0.5)"
         style="fill:context-stroke;fill-rule:evenodd;stroke:context-stroke;stroke-width:1pt"
         d="M 5.77,0 -2.88,5 V -5 Z"
         id="path1168" />
    </marker>
    <marker
       style="overflow:visible"
       id="marker1170_Fnone_S-93a1a1"
       refX="0"
       refY="0"
       orient="auto-start-reverse"
       inkscape:stockid="TriangleStart"
       markerWidth="5.3244081"
       markerHeight="6.155385"
       viewBox="0 0 5.3244081 6.1553851"
       inkscape:isstock="true"
       inkscape:collect="always"
       preserveAspectRatio="xMidYMid">
      <path
         transform="scale(0.5)"
         style="fill:#93a1a1;fill-rule:evenodd;stroke:#93a1a1;stroke-width:1pt"
         d="M 5.77,0 -2.88,5 V -5 Z"
         id="path46280" />
    </marker>
    <marker
       style="overflow:visible"
       id="TriangleStart"
       refX="0"
       refY="0"
       orient="auto-start-reverse"
       inkscape:stockid="TriangleStart"
       markerWidth="5.3244081"
       markerHeight="6.155385"
       viewBox="0 0 5.3244081 6.1553851"
       inkscape:isstock="true"
       inkscape:collect="always"
       preserveAspectRatio="xMidYMid">
      <path
         transform="scale(0.5)"
         style="fill:context-stroke;fill-rule:evenodd;stroke:context-stroke;stroke-width:1pt"
         d="M 5.77,0 -2.88,5 V -5 Z"
         id="path135" />
    </marker>
    <marker
       style="overflow:visible"
       id="TriangleStart_Fnone_S-93a1a1"
       refX="0"
       refY="0"
       orient="auto-start-reverse"
       inkscape:stockid="TriangleStart"
       markerWidth="5.3244081"
       markerHeight="6.155385"
       viewBox="0 0 5.3244081 6.1553851"
       inkscape:isstock="true"
       inkscape:collect="always"
       preserveAspectRatio="xMidYMid">
      <path
         transform="scale(0.5)"
         style="fill:#93a1a1;fill-rule:evenodd;stroke:#93a1a1;stroke-width:1pt"
         d="M 5.77,0 -2.88,5 V -5 Z"
         id="path46283" />
    </marker>
    <inkscape:path-effect
       effect="spiro"
       id="path-effect251"
       is_visible="true"
       lpeversion="1" />
    <inkscape:path-effect
       effect="spiro"
       id="path-effect247"
       is_visible="true"
       lpeversion="1" />
  </defs>
  <g
     inkscape:label="Layer 1"
     inkscape:groupmode="layer"
     id="layer1">
    <path
       style="fill:none;stroke:#93a1a1;stroke-width:0.673094;stroke-linecap:butt;stroke-linejoin:miter;stroke-dasharray:none;stroke-opacity:1;marker-start:url(#TriangleStart_Fnone_S-93a1a1)"
       d="M 54.381944,13.183755 V 200.67326"
       id="path245"
       inkscape:path-effect="#path-effect247"
       inkscape:original-d="M 54.381944,13.183755 V 200.67326" />
    <path
       style="fill:none;stroke:#93a1a1;stroke-width:0.689014;stroke-linecap:butt;stroke-linejoin:miter;stroke-dasharray:none;stroke-opacity:1;marker-end:url(#marker1170_Fnone_S-93a1a1)"
       d="M 14.012105,176.83066 H 194.09711"
       id="path249"
       inkscape:path-effect="#path-effect251"
       inkscape:original-d="M 14.012105,176.83066 H 194.09711" />
    <rect
       style="fill:none;stroke:#93a1a1;stroke-width:0.574178;stroke-linejoin:round;stroke-dasharray:none;stroke-opacity:1"
       id="rect1274"
       width="42.197514"
       height="28.740814"
       x="153.42941"
       y="82.484245"
       ry="5.3231668"
       transform="rotate(15)" />
    <text
       xml:space="preserve"
       style="font-style:normal;font-weight:normal;font-size:14.2471px;line-height:1.25;font-family:sans-serif;fill:#93a1a1;fill-opacity:1;stroke:none;stroke-width:0.356178"
       x="124.60694"
       y="188.89215"
       id="text1330"><tspan
         sodipodi:role="line"
         id="tspan1328"
         style="fill:#93a1a1;fill-opacity:1;stroke-width:0.356178"
         x="124.60694"
         y="188.89215">x</tspan></text>
    <text
       xml:space="preserve"
       style="font-style:normal;font-weight:normal;font-size:14.2471px;line-height:1.25;font-family:sans-serif;fill:#93a1a1;fill-opacity:1;stroke:none;stroke-width:0.356178"
       x="43.621101"
       y="46.146687"
       id="text1334"><tspan
         sodipodi:role="line"
         id="tspan1332"
         style="fill:#93a1a1;fill-opacity:1;stroke-width:0.356178"
         x="43.621101"
         y="46.146687">y</tspan></text>
    <circle
       style="fill:#93a1a1;fill-opacity:1;stroke:none;stroke-width:0.673093;stroke-linejoin:round;stroke-dasharray:none;stroke-opacity:0.607843"
       id="path1388"
       cx="143.51344"
       cy="138.72563"
       r="1.5326686" />
    <text
       xml:space="preserve"
       style="font-style:normal;font-weight:normal;font-size:9.72276px;line-height:1.25;font-family:sans-serif;fill:#d33682;fill-opacity:1;stroke:none;stroke-width:0.355991;stroke-dasharray:none"
       x="145.63121"
       y="151.38655"
       id="text1392"><tspan
         sodipodi:role="line"
         id="tspan1390"
         style="font-size:9.72276px;fill:#d33682;fill-opacity:1;stroke-width:0.355991;stroke-dasharray:none"
         x="145.63121"
         y="151.38655">(x<tspan
   style="font-size:9.72276px;baseline-shift:sub;fill:#d33682;fill-opacity:1;stroke-width:0.355991;stroke-dasharray:none"
   id="tspan2751">r</tspan>, y<tspan
   style="font-size:9.72276px;baseline-shift:sub;fill:#d33682;fill-opacity:1;stroke-width:0.355991;stroke-dasharray:none"
   id="tspan2747">r</tspan>)</tspan></text>
    <circle
       style="fill:none;fill-opacity:1;stroke:#b58900;stroke-width:0.574178;stroke-linejoin:round;stroke-dasharray:none;stroke-opacity:1"
       id="path1486"
       cx="110.04604"
       cy="90.988342"
       r="5.0966196" />
    <text
       xml:space="preserve"
       style="font-style:normal;font-weight:normal;font-size:9.49812px;line-height:1.25;font-family:sans-serif;fill:#b58900;fill-opacity:1;stroke:none;stroke-width:0.356178"
       x="88.694931"
       y="82.25135"
       id="text1646"><tspan
         sodipodi:role="line"
         id="tspan1644"
         style="font-size:9.49812px;fill:#b58900;fill-opacity:1;stroke:none;stroke-width:0.356178;stroke-opacity:0.607843"
         x="88.694931"
         y="82.25135">B<tspan
   style="font-size:6.17378px;baseline-shift:sub;stroke-width:0.356178"
   id="tspan38241">1</tspan> (x<tspan
   style="font-size:6.17377px;baseline-shift:sub;fill:#b58900;fill-opacity:1;stroke-width:0.356178"
   id="tspan2737">1</tspan>, y<tspan
   style="font-size:6.17377px;baseline-shift:sub;fill:#b58900;fill-opacity:1;stroke-width:0.356178"
   id="tspan2741">1</tspan>)</tspan></text>
    <path
       style="fill:none;stroke:#b58900;stroke-width:0.574178;stroke-linecap:butt;stroke-linejoin:miter;stroke-dasharray:none;stroke-opacity:1;marker-start:url(#marker33368_Fnone_S-b58900)"
       d="m 110.04604,90.988356 33.4674,47.737304"
       id="path1928"
       inkscape:path-effect="#path-effect1930"
       inkscape:original-d="m 110.04604,90.988356 33.4674,47.737304" />
    <path
       style="fill:none;stroke:#93a1a1;stroke-width:0.574178;stroke-linecap:butt;stroke-linejoin:miter;stroke-dasharray:none;stroke-opacity:1;marker-end:url(#marker2818_Fnone_S-93a1a1)"
       d="m 143.51345,138.72563 5.82319,-21.73242"
       id="path2800"
       inkscape:path-effect="#path-effect2802"
       inkscape:original-d="m 143.51345,138.72563 5.82319,-21.73242" />
    <circle
       style="fill:none;fill-opacity:1;stroke:#b58900;stroke-width:0.673094;stroke-linejoin:round;stroke-dasharray:none;stroke-opacity:1"
       id="circle3322"
       cx="110.04604"
       cy="90.988342"
       r="58.810699" />
    <path
       style="fill:none;stroke:#93a1a1;stroke-width:0.700498;stroke-linecap:butt;stroke-linejoin:miter;stroke-dasharray:2.802, 1.401;stroke-dashoffset:0;stroke-opacity:1"
       d="M 196.54385,138.7718 H 14.012105"
       id="path19379"
       inkscape:path-effect="#path-effect19381"
       inkscape:original-d="M 196.54385,138.7718 H 14.012105" />
    <path
       style="fill:none;fill-opacity:0.607843;stroke:#d33682;stroke-width:0.700016;stroke-linejoin:round;stroke-dasharray:none;stroke-dashoffset:0;stroke-opacity:1"
       id="path20977"
       sodipodi:type="arc"
       sodipodi:cx="143.60469"
       sodipodi:cy="138.77177"
       sodipodi:rx="17.568171"
       sodipodi:ry="17.568171"
       sodipodi:start="4.9696831"
       sodipodi:end="0"
       sodipodi:arc-type="slice"
       d="m 148.07517,121.78191 a 17.568171,17.568171 0 0 1 13.09769,16.98986 h -17.56817 z" />
    <text
       xml:space="preserve"
       style="font-style:normal;font-weight:normal;font-size:10.5833px;line-height:1.25;font-family:sans-serif;fill:#000000;fill-opacity:1;stroke:none;stroke-width:0.264583"
       x="155.29195"
       y="126.43108"
       id="text21085"><tspan
         sodipodi:role="line"
         id="tspan21083"
         style="stroke-width:0.264583"
         x="155.29195"
         y="126.43108" /></text>
    <text
       xml:space="preserve"
       style="font-style:normal;font-weight:normal;font-size:9.72276px;line-height:1.25;font-family:sans-serif;fill:#d33682;fill-opacity:1;stroke:none;stroke-width:0.173485"
       x="160.36302"
       y="130.58215"
       id="text21851"><tspan
         sodipodi:role="line"
         id="tspan21849"
         style="font-size:9.72276px;fill:#d33682;fill-opacity:1;stroke-width:0.173485"
         x="160.36302"
         y="130.58215">θ</tspan></text>
    <path
       style="fill:none;fill-opacity:0.607843;stroke:#d30102;stroke-width:0.700016;stroke-linejoin:round;stroke-dasharray:none;stroke-dashoffset:0;stroke-opacity:1"
       id="path21922"
       sodipodi:type="arc"
       sodipodi:cx="143.60469"
       sodipodi:cy="138.77177"
       sodipodi:rx="17.712402"
       sodipodi:ry="17.712402"
       sodipodi:start="4.0958161"
       sodipodi:end="4.9719094"
       sodipodi:arc-type="slice"
       d="M 133.36263,124.32085 A 17.712402,17.712402 0 0 1 148.15,121.6525 l -4.54531,17.11927 z" />
    <text
       xml:space="preserve"
       style="font-style:normal;font-weight:normal;font-size:7.16662px;line-height:1.25;font-family:sans-serif;fill:#d30102;fill-opacity:1;stroke:none;stroke-width:0.179165"
       x="137.14046"
       y="117.67522"
       id="text24404"><tspan
         sodipodi:role="line"
         id="tspan24402"
         style="fill:#d30102;fill-opacity:1;stroke-width:0.179165"
         x="137.14046"
         y="117.67522">φ<tspan
   style="font-size:4.6583px;baseline-shift:sub;stroke-width:0.179165"
   id="tspan39101">1</tspan></tspan></text>
    <g
       transform="matrix(1.4900158,0,0,1.4900158,104.72854,107.28665)"
       ns3:version="1.8.2"
       ns3:texconverter="pdflatex"
       ns3:pdfconverter="inkscape"
       ns3:text="$\\overrightarrow{v}$"
       ns3:preamble="/home/aethor/.config/inkscape/extensions/textext/default_packages.tex"
       ns3:scale="3.1375060236182533"
       ns3:alignment="middle center"
       ns3:stroke-to-path="0"
       ns3:inkscapeversion="1.2.1"
       ns3:jacobian_sqrt="1.10684"
       id="g2262"
       style="fill:#b58900;fill-opacity:1">
      <defs
         id="id-e7e7e9bc-6666-4a93-92ae-3152dc2be08c">
        <g
           id="id-4636c594-93bf-4d5f-99ee-cc088a061c3b">
          <g
             id="id-e5efbfe8-fce5-461f-b811-4e6ab57d757c" />
          <g
             id="id-d9dfcde7-5dc1-40db-af80-32e6f30bed6c">
            <path
               d="m 6.5625,-2.296875 c 0.171875,0 0.359375,0 0.359375,-0.203125 0,-0.1875 -0.1875,-0.1875 -0.359375,-0.1875 H 1.171875 c -0.171875,0 -0.34375,0 -0.34375,0.1875 0,0.203125 0.171875,0.203125 0.34375,0.203125 z m 0,0"
               id="id-c783bde2-7b25-41a7-95c9-8e3aea48ef9a" />
          </g>
          <g
             id="id-8ef7d000-9e1d-4f8e-b201-8e50f3cf2f4e">
            <path
               d="M 8.3125,-2.296875 C 7.765625,-1.875 7.5,-1.46875 7.421875,-1.328125 c -0.453125,0.6875 -0.53125,1.3125 -0.53125,1.3125 0,0.125 0.125,0.125 0.203125,0.125 C 7.25,0.109375 7.265625,0.09375 7.3125,-0.09375 7.53125,-1.0625 8.125,-1.90625 9.25,-2.359375 9.375,-2.40625 9.40625,-2.421875 9.40625,-2.5 c 0,-0.0625 -0.0625,-0.09375 -0.078125,-0.109375 C 8.875,-2.765625 7.671875,-3.265625 7.296875,-4.9375 7.265625,-5.0625 7.25,-5.09375 7.09375,-5.09375 c -0.078125,0 -0.203125,0 -0.203125,0.125 0,0.015625 0.09375,0.640625 0.5,1.3125 0.203125,0.296875 0.5,0.640625 0.921875,0.96875 H 0.90625 c -0.171875,0 -0.359375,0 -0.359375,0.1875 0,0.203125 0.1875,0.203125 0.359375,0.203125 z m 0,0"
               id="id-8fd3c85d-0b16-4c4d-9f70-3f24ec486e9b" />
          </g>
          <g
             id="id-87b139fa-04f3-4c10-9bf0-b1273fdaf09e" />
          <g
             id="id-e1755824-1ad6-4120-9e77-77d215929507">
            <path
               d="m 4.671875,-3.703125 c 0,-0.546875 -0.265625,-0.703125 -0.4375,-0.703125 -0.25,0 -0.5,0.265625 -0.5,0.484375 0,0.125 0.046875,0.1875 0.15625,0.296875 0.21875,0.203125 0.34375,0.453125 0.34375,0.8125 0,0.421875 -0.609375,2.703125 -1.765625,2.703125 -0.515625,0 -0.75,-0.34375 -0.75,-0.875 0,-0.546875 0.28125,-1.28125 0.578125,-2.109375 0.078125,-0.171875 0.125,-0.3125 0.125,-0.5 0,-0.4375 -0.3125,-0.8125 -0.8125,-0.8125 -0.9375,0 -1.3125,1.453125 -1.3125,1.53125 0,0.109375 0.09375,0.109375 0.109375,0.109375 0.109375,0 0.109375,-0.03125 0.15625,-0.1875 0.296875,-1 0.71875,-1.234375 1.015625,-1.234375 0.078125,0 0.25,0 0.25,0.3125 0,0.25 -0.109375,0.53125 -0.171875,0.703125 -0.4375,1.15625 -0.5625,1.609375 -0.5625,2.046875 0,1.078125 0.875,1.234375 1.328125,1.234375 1.671875,0 2.25,-3.296875 2.25,-3.8125 z m 0,0"
               id="id-5cfdaa2e-5ce6-416f-bbaa-20599eff1700" />
          </g>
        </g>
      </defs>
      <g
         fill="#000000"
         fill-opacity="1"
         id="id-ea724736-f3e9-40b9-a5cb-ddc683fad0c3"
         transform="translate(-149.257,-125.381)"
         style="fill:#b58900;fill-opacity:1">
        <g
           transform="translate(148.712,130.475)"
           id="g2251"
           style="fill:#b58900;fill-opacity:1">
          <path
             d="m 6.5625,-2.296875 c 0.171875,0 0.359375,0 0.359375,-0.203125 0,-0.1875 -0.1875,-0.1875 -0.359375,-0.1875 H 1.171875 c -0.171875,0 -0.34375,0 -0.34375,0.1875 0,0.203125 0.171875,0.203125 0.34375,0.203125 z m 0,0"
             id="id-b7b0dc80-765f-4b76-9561-8ae20a518a7f"
             style="fill:#b58900;fill-opacity:1" />
        </g>
      </g>
      <g
         fill="#000000"
         fill-opacity="1"
         id="id-458cdbf7-4a6a-49bf-962f-e7c8f78abdcf"
         transform="translate(-149.257,-125.381)"
         style="fill:#b58900;fill-opacity:1">
        <g
           transform="translate(148.71,130.475)"
           id="g2255"
           style="fill:#b58900;fill-opacity:1">
          <path
             d="M 8.3125,-2.296875 C 7.765625,-1.875 7.5,-1.46875 7.421875,-1.328125 c -0.453125,0.6875 -0.53125,1.3125 -0.53125,1.3125 0,0.125 0.125,0.125 0.203125,0.125 C 7.25,0.109375 7.265625,0.09375 7.3125,-0.09375 7.53125,-1.0625 8.125,-1.90625 9.25,-2.359375 9.375,-2.40625 9.40625,-2.421875 9.40625,-2.5 c 0,-0.0625 -0.0625,-0.09375 -0.078125,-0.109375 C 8.875,-2.765625 7.671875,-3.265625 7.296875,-4.9375 7.265625,-5.0625 7.25,-5.09375 7.09375,-5.09375 c -0.078125,0 -0.203125,0 -0.203125,0.125 0,0.015625 0.09375,0.640625 0.5,1.3125 0.203125,0.296875 0.5,0.640625 0.921875,0.96875 H 0.90625 c -0.171875,0 -0.359375,0 -0.359375,0.1875 0,0.203125 0.1875,0.203125 0.359375,0.203125 z m 0,0"
             id="id-d74da778-c703-434f-b2ed-c5604cd83fe8"
             style="fill:#b58900;fill-opacity:1" />
        </g>
      </g>
      <g
         fill="#000000"
         fill-opacity="1"
         id="id-8b9a44a3-5138-4f4e-a94f-b1c117673d69"
         transform="translate(-149.257,-125.381)"
         style="fill:#b58900;fill-opacity:1">
        <g
           transform="translate(151.1,134.765)"
           id="g2259"
           style="fill:#b58900;fill-opacity:1">
          <path
             d="m 4.671875,-3.703125 c 0,-0.546875 -0.265625,-0.703125 -0.4375,-0.703125 -0.25,0 -0.5,0.265625 -0.5,0.484375 0,0.125 0.046875,0.1875 0.15625,0.296875 0.21875,0.203125 0.34375,0.453125 0.34375,0.8125 0,0.421875 -0.609375,2.703125 -1.765625,2.703125 -0.515625,0 -0.75,-0.34375 -0.75,-0.875 0,-0.546875 0.28125,-1.28125 0.578125,-2.109375 0.078125,-0.171875 0.125,-0.3125 0.125,-0.5 0,-0.4375 -0.3125,-0.8125 -0.8125,-0.8125 -0.9375,0 -1.3125,1.453125 -1.3125,1.53125 0,0.109375 0.09375,0.109375 0.109375,0.109375 0.109375,0 0.109375,-0.03125 0.15625,-0.1875 0.296875,-1 0.71875,-1.234375 1.015625,-1.234375 0.078125,0 0.25,0 0.25,0.3125 0,0.25 -0.109375,0.53125 -0.171875,0.703125 -0.4375,1.15625 -0.5625,1.609375 -0.5625,2.046875 0,1.078125 0.875,1.234375 1.328125,1.234375 1.671875,0 2.25,-3.296875 2.25,-3.8125 z m 0,0"
             id="id-80d6df4b-2ba9-48c4-90d8-af5b4ef3646f"
             style="fill:#b58900;fill-opacity:1" />
        </g>
      </g>
    </g>
  </g>
</svg>
